# xmcd
#
# Track frame offsets:
#	150
#	15505
#	32558
#	51415
#	69337
#	85719
#	100453
#	115565
#	130926
#	148365
#	177189
#	193035
#	210786
#
# Disc length: 2902 seconds
#
# Revision: 0
# Processed by: cddbd v1.4PL0 Copyright (c) Steve Scherf et al.
# Submitted via: EasyCDDAExtractor 4.6.9.1
#
DISCID=ac0b540d
DTITLE=Bad News Blues Band - Cruisin' For a Bluesin'
DYEAR=1996
DGENRE=Blues
TTITLE0=Austin Bound
TTITLE1=Ice Cold
TTITLE2=You Don't Love Me
TTITLE3=Stupid
TTITLE4=Good Woman Gone Bad
TTITLE5=Need That Woman
TTITLE6=Nowhere Baby
TTITLE7=Tall Skinny Mama
TTITLE8=Tale of J. Walker
TTITLE9=Ada (Johnny's Blues)
TTITLE10=Love is Blind
TTITLE11=Green Jello Gumbo
TTITLE12=Twinkle
EXTD=
EXTT0=
EXTT1=
EXTT2=
EXTT3=
EXTT4=
EXTT5=
EXTT6=
EXTT7=
EXTT8=
EXTT9=
EXTT10=
EXTT11=
EXTT12=
PLAYORDER=
